<mxfile host="www.draw.io" modified="2023-04-27T12:06:04.597Z" agent="Mozilla/5.0 (X11; Ubuntu; Linux x86_64; rv:109.0) Gecko/20100101 Firefox/112.0" etag="O2qFWkoK4zBYW8NJu3PF" version="21.2.3" type="device">
  <diagram name="Page-1" id="NkNQNPcK8kfwGBAJUttt">
    <mxGraphModel dx="1434" dy="766" grid="1" gridSize="10" guides="1" tooltips="1" connect="1" arrows="1" fold="1" page="1" pageScale="1" pageWidth="850" pageHeight="1100" math="0" shadow="0">
      <root>
        <mxCell id="0" />
        <mxCell id="1" parent="0" />
        <mxCell id="SdokmAp8zPThDSk14Q1l-1" value="&lt;div&gt;CF&lt;/div&gt;" style="swimlane;whiteSpace=wrap;html=1;startSize=30;" vertex="1" parent="1">
          <mxGeometry x="40" y="280" width="210" height="150" as="geometry" />
        </mxCell>
        <mxCell id="SdokmAp8zPThDSk14Q1l-2" value="" style="rounded=0;whiteSpace=wrap;html=1;fillColor=#9a9996;" vertex="1" parent="SdokmAp8zPThDSk14Q1l-1">
          <mxGeometry y="30" width="70" height="30" as="geometry" />
        </mxCell>
        <mxCell id="SdokmAp8zPThDSk14Q1l-3" value="" style="rounded=0;whiteSpace=wrap;html=1;fillColor=#9a9996;" vertex="1" parent="SdokmAp8zPThDSk14Q1l-1">
          <mxGeometry x="70" y="30" width="70" height="30" as="geometry" />
        </mxCell>
        <mxCell id="SdokmAp8zPThDSk14Q1l-4" value="" style="rounded=0;whiteSpace=wrap;html=1;fillColor=#9a9996;" vertex="1" parent="SdokmAp8zPThDSk14Q1l-1">
          <mxGeometry x="140" y="30" width="70" height="30" as="geometry" />
        </mxCell>
        <mxCell id="SdokmAp8zPThDSk14Q1l-5" value="" style="rounded=0;whiteSpace=wrap;html=1;fillColor=#9a9996;" vertex="1" parent="SdokmAp8zPThDSk14Q1l-1">
          <mxGeometry y="60" width="70" height="30" as="geometry" />
        </mxCell>
        <mxCell id="SdokmAp8zPThDSk14Q1l-6" value="" style="rounded=0;whiteSpace=wrap;html=1;fillColor=#9a9996;" vertex="1" parent="SdokmAp8zPThDSk14Q1l-1">
          <mxGeometry x="70" y="60" width="70" height="30" as="geometry" />
        </mxCell>
        <mxCell id="SdokmAp8zPThDSk14Q1l-7" value="" style="rounded=0;whiteSpace=wrap;html=1;fillColor=#9a9996;" vertex="1" parent="SdokmAp8zPThDSk14Q1l-1">
          <mxGeometry x="140" y="60" width="70" height="30" as="geometry" />
        </mxCell>
        <mxCell id="SdokmAp8zPThDSk14Q1l-8" value="" style="rounded=0;whiteSpace=wrap;html=1;fillColor=#9a9996;" vertex="1" parent="SdokmAp8zPThDSk14Q1l-1">
          <mxGeometry y="90" width="70" height="30" as="geometry" />
        </mxCell>
        <mxCell id="SdokmAp8zPThDSk14Q1l-9" value="" style="rounded=0;whiteSpace=wrap;html=1;fillColor=#9a9996;" vertex="1" parent="SdokmAp8zPThDSk14Q1l-1">
          <mxGeometry x="70" y="90" width="70" height="30" as="geometry" />
        </mxCell>
        <mxCell id="SdokmAp8zPThDSk14Q1l-10" value="" style="rounded=0;whiteSpace=wrap;html=1;" vertex="1" parent="SdokmAp8zPThDSk14Q1l-1">
          <mxGeometry x="140" y="90" width="70" height="30" as="geometry" />
        </mxCell>
        <mxCell id="SdokmAp8zPThDSk14Q1l-11" value="" style="rounded=0;whiteSpace=wrap;html=1;fillColor=#9a9996;" vertex="1" parent="SdokmAp8zPThDSk14Q1l-1">
          <mxGeometry y="120" width="70" height="30" as="geometry" />
        </mxCell>
        <mxCell id="SdokmAp8zPThDSk14Q1l-12" value="" style="rounded=0;whiteSpace=wrap;html=1;fillColor=#9a9996;" vertex="1" parent="SdokmAp8zPThDSk14Q1l-1">
          <mxGeometry x="70" y="120" width="70" height="30" as="geometry" />
        </mxCell>
        <mxCell id="SdokmAp8zPThDSk14Q1l-13" value="" style="rounded=0;whiteSpace=wrap;html=1;fillColor=#9a9996;" vertex="1" parent="SdokmAp8zPThDSk14Q1l-1">
          <mxGeometry x="140" y="120" width="70" height="30" as="geometry" />
        </mxCell>
        <mxCell id="SdokmAp8zPThDSk14Q1l-17" value="&lt;div&gt;CF 0&lt;/div&gt;" style="swimlane;whiteSpace=wrap;html=1;startSize=30;" vertex="1" parent="1">
          <mxGeometry x="320" y="120" width="210" height="150" as="geometry" />
        </mxCell>
        <mxCell id="SdokmAp8zPThDSk14Q1l-18" value="" style="rounded=0;whiteSpace=wrap;html=1;fillColor=#9a9996;" vertex="1" parent="SdokmAp8zPThDSk14Q1l-17">
          <mxGeometry y="30" width="70" height="30" as="geometry" />
        </mxCell>
        <mxCell id="SdokmAp8zPThDSk14Q1l-19" value="" style="rounded=0;whiteSpace=wrap;html=1;fillColor=#9a9996;" vertex="1" parent="SdokmAp8zPThDSk14Q1l-17">
          <mxGeometry x="70" y="30" width="70" height="30" as="geometry" />
        </mxCell>
        <mxCell id="SdokmAp8zPThDSk14Q1l-20" value="" style="rounded=0;whiteSpace=wrap;html=1;" vertex="1" parent="SdokmAp8zPThDSk14Q1l-17">
          <mxGeometry x="140" y="30" width="70" height="30" as="geometry" />
        </mxCell>
        <mxCell id="SdokmAp8zPThDSk14Q1l-21" value="" style="rounded=0;whiteSpace=wrap;html=1;fillColor=#9a9996;" vertex="1" parent="SdokmAp8zPThDSk14Q1l-17">
          <mxGeometry y="60" width="70" height="30" as="geometry" />
        </mxCell>
        <mxCell id="SdokmAp8zPThDSk14Q1l-22" value="" style="rounded=0;whiteSpace=wrap;html=1;fillColor=#FFFFFF;" vertex="1" parent="SdokmAp8zPThDSk14Q1l-17">
          <mxGeometry x="70" y="60" width="70" height="30" as="geometry" />
        </mxCell>
        <mxCell id="SdokmAp8zPThDSk14Q1l-23" value="" style="rounded=0;whiteSpace=wrap;html=1;" vertex="1" parent="SdokmAp8zPThDSk14Q1l-17">
          <mxGeometry x="140" y="60" width="70" height="30" as="geometry" />
        </mxCell>
        <mxCell id="SdokmAp8zPThDSk14Q1l-24" value="" style="rounded=0;whiteSpace=wrap;html=1;fillColor=#9a9996;" vertex="1" parent="SdokmAp8zPThDSk14Q1l-17">
          <mxGeometry y="90" width="70" height="30" as="geometry" />
        </mxCell>
        <mxCell id="SdokmAp8zPThDSk14Q1l-25" value="" style="rounded=0;whiteSpace=wrap;html=1;fillColor=#9a9996;" vertex="1" parent="SdokmAp8zPThDSk14Q1l-17">
          <mxGeometry x="70" y="90" width="70" height="30" as="geometry" />
        </mxCell>
        <mxCell id="SdokmAp8zPThDSk14Q1l-26" value="" style="rounded=0;whiteSpace=wrap;html=1;fillColor=#9a9996;" vertex="1" parent="SdokmAp8zPThDSk14Q1l-17">
          <mxGeometry x="140" y="90" width="70" height="30" as="geometry" />
        </mxCell>
        <mxCell id="SdokmAp8zPThDSk14Q1l-27" value="" style="rounded=0;whiteSpace=wrap;html=1;fillColor=#9a9996;" vertex="1" parent="SdokmAp8zPThDSk14Q1l-17">
          <mxGeometry y="120" width="70" height="30" as="geometry" />
        </mxCell>
        <mxCell id="SdokmAp8zPThDSk14Q1l-28" value="" style="rounded=0;whiteSpace=wrap;html=1;fillColor=#9a9996;" vertex="1" parent="SdokmAp8zPThDSk14Q1l-17">
          <mxGeometry x="70" y="120" width="70" height="30" as="geometry" />
        </mxCell>
        <mxCell id="SdokmAp8zPThDSk14Q1l-29" value="" style="rounded=0;whiteSpace=wrap;html=1;fillColor=#9a9996;" vertex="1" parent="SdokmAp8zPThDSk14Q1l-17">
          <mxGeometry x="140" y="120" width="70" height="30" as="geometry" />
        </mxCell>
        <mxCell id="SdokmAp8zPThDSk14Q1l-30" value="CF 1" style="swimlane;whiteSpace=wrap;html=1;startSize=30;" vertex="1" parent="1">
          <mxGeometry x="330" y="420" width="210" height="150" as="geometry" />
        </mxCell>
        <mxCell id="SdokmAp8zPThDSk14Q1l-31" value="" style="rounded=0;whiteSpace=wrap;html=1;fillColor=#9a9996;" vertex="1" parent="SdokmAp8zPThDSk14Q1l-30">
          <mxGeometry y="30" width="70" height="30" as="geometry" />
        </mxCell>
        <mxCell id="SdokmAp8zPThDSk14Q1l-32" value="" style="rounded=0;whiteSpace=wrap;html=1;" vertex="1" parent="SdokmAp8zPThDSk14Q1l-30">
          <mxGeometry x="70" y="30" width="70" height="30" as="geometry" />
        </mxCell>
        <mxCell id="SdokmAp8zPThDSk14Q1l-33" value="" style="rounded=0;whiteSpace=wrap;html=1;" vertex="1" parent="SdokmAp8zPThDSk14Q1l-30">
          <mxGeometry x="140" y="30" width="70" height="30" as="geometry" />
        </mxCell>
        <mxCell id="SdokmAp8zPThDSk14Q1l-34" value="" style="rounded=0;whiteSpace=wrap;html=1;" vertex="1" parent="SdokmAp8zPThDSk14Q1l-30">
          <mxGeometry y="60" width="70" height="30" as="geometry" />
        </mxCell>
        <mxCell id="SdokmAp8zPThDSk14Q1l-35" value="" style="rounded=0;whiteSpace=wrap;html=1;" vertex="1" parent="SdokmAp8zPThDSk14Q1l-30">
          <mxGeometry x="70" y="60" width="70" height="30" as="geometry" />
        </mxCell>
        <mxCell id="SdokmAp8zPThDSk14Q1l-36" value="" style="rounded=0;whiteSpace=wrap;html=1;" vertex="1" parent="SdokmAp8zPThDSk14Q1l-30">
          <mxGeometry x="140" y="60" width="70" height="30" as="geometry" />
        </mxCell>
        <mxCell id="SdokmAp8zPThDSk14Q1l-37" value="" style="rounded=0;whiteSpace=wrap;html=1;" vertex="1" parent="SdokmAp8zPThDSk14Q1l-30">
          <mxGeometry y="90" width="70" height="30" as="geometry" />
        </mxCell>
        <mxCell id="SdokmAp8zPThDSk14Q1l-38" value="" style="rounded=0;whiteSpace=wrap;html=1;" vertex="1" parent="SdokmAp8zPThDSk14Q1l-30">
          <mxGeometry x="70" y="90" width="70" height="30" as="geometry" />
        </mxCell>
        <mxCell id="SdokmAp8zPThDSk14Q1l-39" value="" style="rounded=0;whiteSpace=wrap;html=1;" vertex="1" parent="SdokmAp8zPThDSk14Q1l-30">
          <mxGeometry x="140" y="90" width="70" height="30" as="geometry" />
        </mxCell>
        <mxCell id="SdokmAp8zPThDSk14Q1l-40" value="" style="rounded=0;whiteSpace=wrap;html=1;fillColor=#9a9996;" vertex="1" parent="SdokmAp8zPThDSk14Q1l-30">
          <mxGeometry y="120" width="70" height="30" as="geometry" />
        </mxCell>
        <mxCell id="SdokmAp8zPThDSk14Q1l-41" value="" style="rounded=0;whiteSpace=wrap;html=1;fillColor=#9a9996;" vertex="1" parent="SdokmAp8zPThDSk14Q1l-30">
          <mxGeometry x="70" y="120" width="70" height="30" as="geometry" />
        </mxCell>
        <mxCell id="SdokmAp8zPThDSk14Q1l-42" value="" style="rounded=0;whiteSpace=wrap;html=1;" vertex="1" parent="SdokmAp8zPThDSk14Q1l-30">
          <mxGeometry x="140" y="120" width="70" height="30" as="geometry" />
        </mxCell>
        <mxCell id="SdokmAp8zPThDSk14Q1l-43" value="" style="curved=1;endArrow=classic;html=1;rounded=0;entryX=0;entryY=0.25;entryDx=0;entryDy=0;" edge="1" parent="1" target="SdokmAp8zPThDSk14Q1l-21">
          <mxGeometry width="50" height="50" relative="1" as="geometry">
            <mxPoint x="250" y="330" as="sourcePoint" />
            <mxPoint x="300" y="280" as="targetPoint" />
            <Array as="points">
              <mxPoint x="300" y="330" />
              <mxPoint x="270" y="190" />
            </Array>
          </mxGeometry>
        </mxCell>
        <mxCell id="SdokmAp8zPThDSk14Q1l-44" value="" style="curved=1;endArrow=classic;html=1;rounded=0;entryX=0;entryY=0.25;entryDx=0;entryDy=0;" edge="1" parent="1" target="SdokmAp8zPThDSk14Q1l-37">
          <mxGeometry width="50" height="50" relative="1" as="geometry">
            <mxPoint x="250" y="420" as="sourcePoint" />
            <mxPoint x="300" y="370" as="targetPoint" />
            <Array as="points">
              <mxPoint x="290" y="430" />
              <mxPoint x="270" y="480" />
              <mxPoint x="290" y="510" />
            </Array>
          </mxGeometry>
        </mxCell>
        <mxCell id="SdokmAp8zPThDSk14Q1l-45" value="&lt;div&gt;CF 00&lt;/div&gt;" style="swimlane;whiteSpace=wrap;html=1;startSize=30;" vertex="1" parent="1">
          <mxGeometry x="620" y="30" width="210" height="150" as="geometry" />
        </mxCell>
        <mxCell id="SdokmAp8zPThDSk14Q1l-46" value="" style="rounded=0;whiteSpace=wrap;html=1;" vertex="1" parent="SdokmAp8zPThDSk14Q1l-45">
          <mxGeometry y="30" width="70" height="30" as="geometry" />
        </mxCell>
        <mxCell id="SdokmAp8zPThDSk14Q1l-47" value="" style="rounded=0;whiteSpace=wrap;html=1;" vertex="1" parent="SdokmAp8zPThDSk14Q1l-45">
          <mxGeometry x="70" y="30" width="70" height="30" as="geometry" />
        </mxCell>
        <mxCell id="SdokmAp8zPThDSk14Q1l-48" value="" style="rounded=0;whiteSpace=wrap;html=1;" vertex="1" parent="SdokmAp8zPThDSk14Q1l-45">
          <mxGeometry x="140" y="30" width="70" height="30" as="geometry" />
        </mxCell>
        <mxCell id="SdokmAp8zPThDSk14Q1l-49" value="" style="rounded=0;whiteSpace=wrap;html=1;fillColor=#9a9996;" vertex="1" parent="SdokmAp8zPThDSk14Q1l-45">
          <mxGeometry y="60" width="70" height="30" as="geometry" />
        </mxCell>
        <mxCell id="SdokmAp8zPThDSk14Q1l-50" value="" style="rounded=0;whiteSpace=wrap;html=1;" vertex="1" parent="SdokmAp8zPThDSk14Q1l-45">
          <mxGeometry x="70" y="60" width="70" height="30" as="geometry" />
        </mxCell>
        <mxCell id="SdokmAp8zPThDSk14Q1l-51" value="" style="rounded=0;whiteSpace=wrap;html=1;" vertex="1" parent="SdokmAp8zPThDSk14Q1l-45">
          <mxGeometry x="140" y="60" width="70" height="30" as="geometry" />
        </mxCell>
        <mxCell id="SdokmAp8zPThDSk14Q1l-52" value="" style="rounded=0;whiteSpace=wrap;html=1;fillColor=#9a9996;" vertex="1" parent="SdokmAp8zPThDSk14Q1l-45">
          <mxGeometry y="90" width="70" height="30" as="geometry" />
        </mxCell>
        <mxCell id="SdokmAp8zPThDSk14Q1l-53" value="" style="rounded=0;whiteSpace=wrap;html=1;fillColor=#9a9996;" vertex="1" parent="SdokmAp8zPThDSk14Q1l-45">
          <mxGeometry x="70" y="90" width="70" height="30" as="geometry" />
        </mxCell>
        <mxCell id="SdokmAp8zPThDSk14Q1l-54" value="" style="rounded=0;whiteSpace=wrap;html=1;" vertex="1" parent="SdokmAp8zPThDSk14Q1l-45">
          <mxGeometry x="140" y="90" width="70" height="30" as="geometry" />
        </mxCell>
        <mxCell id="SdokmAp8zPThDSk14Q1l-55" value="" style="rounded=0;whiteSpace=wrap;html=1;" vertex="1" parent="SdokmAp8zPThDSk14Q1l-45">
          <mxGeometry y="120" width="70" height="30" as="geometry" />
        </mxCell>
        <mxCell id="SdokmAp8zPThDSk14Q1l-56" value="" style="rounded=0;whiteSpace=wrap;html=1;" vertex="1" parent="SdokmAp8zPThDSk14Q1l-45">
          <mxGeometry x="70" y="120" width="70" height="30" as="geometry" />
        </mxCell>
        <mxCell id="SdokmAp8zPThDSk14Q1l-57" value="" style="rounded=0;whiteSpace=wrap;html=1;" vertex="1" parent="SdokmAp8zPThDSk14Q1l-45">
          <mxGeometry x="140" y="120" width="70" height="30" as="geometry" />
        </mxCell>
        <mxCell id="SdokmAp8zPThDSk14Q1l-58" value="&lt;div&gt;CF 01&lt;/div&gt;" style="swimlane;whiteSpace=wrap;html=1;startSize=30;" vertex="1" parent="1">
          <mxGeometry x="620" y="240" width="210" height="150" as="geometry" />
        </mxCell>
        <mxCell id="SdokmAp8zPThDSk14Q1l-59" value="" style="rounded=0;whiteSpace=wrap;html=1;" vertex="1" parent="SdokmAp8zPThDSk14Q1l-58">
          <mxGeometry y="30" width="70" height="30" as="geometry" />
        </mxCell>
        <mxCell id="SdokmAp8zPThDSk14Q1l-60" value="" style="rounded=0;whiteSpace=wrap;html=1;" vertex="1" parent="SdokmAp8zPThDSk14Q1l-58">
          <mxGeometry x="70" y="30" width="70" height="30" as="geometry" />
        </mxCell>
        <mxCell id="SdokmAp8zPThDSk14Q1l-61" value="" style="rounded=0;whiteSpace=wrap;html=1;" vertex="1" parent="SdokmAp8zPThDSk14Q1l-58">
          <mxGeometry x="140" y="30" width="70" height="30" as="geometry" />
        </mxCell>
        <mxCell id="SdokmAp8zPThDSk14Q1l-62" value="" style="rounded=0;whiteSpace=wrap;html=1;fillColor=#9a9996;" vertex="1" parent="SdokmAp8zPThDSk14Q1l-58">
          <mxGeometry y="60" width="70" height="30" as="geometry" />
        </mxCell>
        <mxCell id="SdokmAp8zPThDSk14Q1l-63" value="" style="rounded=0;whiteSpace=wrap;html=1;" vertex="1" parent="SdokmAp8zPThDSk14Q1l-58">
          <mxGeometry x="70" y="60" width="70" height="30" as="geometry" />
        </mxCell>
        <mxCell id="SdokmAp8zPThDSk14Q1l-64" value="" style="rounded=0;whiteSpace=wrap;html=1;" vertex="1" parent="SdokmAp8zPThDSk14Q1l-58">
          <mxGeometry x="140" y="60" width="70" height="30" as="geometry" />
        </mxCell>
        <mxCell id="SdokmAp8zPThDSk14Q1l-65" value="" style="rounded=0;whiteSpace=wrap;html=1;fillColor=#FFFFFF;" vertex="1" parent="SdokmAp8zPThDSk14Q1l-58">
          <mxGeometry y="90" width="70" height="30" as="geometry" />
        </mxCell>
        <mxCell id="SdokmAp8zPThDSk14Q1l-66" value="" style="rounded=0;whiteSpace=wrap;html=1;fillColor=#FFFFFF;" vertex="1" parent="SdokmAp8zPThDSk14Q1l-58">
          <mxGeometry x="70" y="90" width="70" height="30" as="geometry" />
        </mxCell>
        <mxCell id="SdokmAp8zPThDSk14Q1l-67" value="" style="rounded=0;whiteSpace=wrap;html=1;" vertex="1" parent="SdokmAp8zPThDSk14Q1l-58">
          <mxGeometry x="140" y="90" width="70" height="30" as="geometry" />
        </mxCell>
        <mxCell id="SdokmAp8zPThDSk14Q1l-68" value="" style="rounded=0;whiteSpace=wrap;html=1;" vertex="1" parent="SdokmAp8zPThDSk14Q1l-58">
          <mxGeometry y="120" width="70" height="30" as="geometry" />
        </mxCell>
        <mxCell id="SdokmAp8zPThDSk14Q1l-69" value="" style="rounded=0;whiteSpace=wrap;html=1;" vertex="1" parent="SdokmAp8zPThDSk14Q1l-58">
          <mxGeometry x="70" y="120" width="70" height="30" as="geometry" />
        </mxCell>
        <mxCell id="SdokmAp8zPThDSk14Q1l-70" value="" style="rounded=0;whiteSpace=wrap;html=1;" vertex="1" parent="SdokmAp8zPThDSk14Q1l-58">
          <mxGeometry x="140" y="120" width="70" height="30" as="geometry" />
        </mxCell>
        <mxCell id="SdokmAp8zPThDSk14Q1l-71" value="" style="curved=1;endArrow=classic;html=1;rounded=0;entryX=0;entryY=0.5;entryDx=0;entryDy=0;" edge="1" parent="1" target="SdokmAp8zPThDSk14Q1l-49">
          <mxGeometry width="50" height="50" relative="1" as="geometry">
            <mxPoint x="530" y="170" as="sourcePoint" />
            <mxPoint x="580" y="120" as="targetPoint" />
            <Array as="points">
              <mxPoint x="580" y="160" />
              <mxPoint x="550" y="110" />
            </Array>
          </mxGeometry>
        </mxCell>
        <mxCell id="SdokmAp8zPThDSk14Q1l-72" value="" style="curved=1;endArrow=classic;html=1;rounded=0;entryX=0;entryY=0.25;entryDx=0;entryDy=0;" edge="1" parent="1" target="SdokmAp8zPThDSk14Q1l-65">
          <mxGeometry width="50" height="50" relative="1" as="geometry">
            <mxPoint x="530" y="260" as="sourcePoint" />
            <mxPoint x="580" y="210" as="targetPoint" />
            <Array as="points">
              <mxPoint x="580" y="270" />
              <mxPoint x="540" y="320" />
            </Array>
          </mxGeometry>
        </mxCell>
        <mxCell id="SdokmAp8zPThDSk14Q1l-73" value="&lt;font style=&quot;font-size: 16px;&quot;&gt;Level 0&lt;/font&gt;" style="text;html=1;strokeColor=none;fillColor=none;align=center;verticalAlign=middle;whiteSpace=wrap;rounded=0;" vertex="1" parent="1">
          <mxGeometry x="40" y="250" width="60" height="30" as="geometry" />
        </mxCell>
        <mxCell id="SdokmAp8zPThDSk14Q1l-74" value="&lt;font style=&quot;font-size: 16px;&quot;&gt;Level 1&lt;/font&gt;" style="text;html=1;strokeColor=none;fillColor=none;align=center;verticalAlign=middle;whiteSpace=wrap;rounded=0;" vertex="1" parent="1">
          <mxGeometry x="320" y="90" width="60" height="30" as="geometry" />
        </mxCell>
        <mxCell id="SdokmAp8zPThDSk14Q1l-75" value="&lt;div style=&quot;font-size: 13px;&quot;&gt;&lt;font style=&quot;font-size: 16px;&quot;&gt;Level 2&lt;/font&gt;&lt;/div&gt;" style="text;html=1;strokeColor=none;fillColor=none;align=center;verticalAlign=middle;whiteSpace=wrap;rounded=0;" vertex="1" parent="1">
          <mxGeometry x="620" width="60" height="30" as="geometry" />
        </mxCell>
        <mxCell id="SdokmAp8zPThDSk14Q1l-76" value="&lt;font style=&quot;font-size: 16px;&quot;&gt;CF [prefix]&lt;/font&gt;" style="text;html=1;strokeColor=none;fillColor=none;align=center;verticalAlign=middle;whiteSpace=wrap;rounded=0;" vertex="1" parent="1">
          <mxGeometry x="40" y="210" width="90" height="30" as="geometry" />
        </mxCell>
      </root>
    </mxGraphModel>
  </diagram>
</mxfile>
